<svg width="500" height="585" viewBox="0 0 500 585" fill="none" xmlns="http://www.w3.org/2000/svg">
<g clip-path="url(#clip0_12_14)">
<path d="M0 531.362H39.4265C61.828 531.362 81.5412 526.882 99.4624 517.025C117.384 508.065 131.72 493.728 143.369 476.703C155.018 458.781 162.186 438.172 165.771 413.979L221.326 122.76H128.136L71.6846 416.667C68.9964 431.004 63.6201 441.756 55.5556 449.821C46.595 456.989 34.9462 460.574 20.6093 460.574H11.6487L0 531.362ZM130.824 104.839L258.065 64.5161L232.079 0L117.384 69.8925L130.824 104.839Z" fill="#D9D9D9"/>
<path d="M356.631 241.039C379.928 241.039 401.433 235.663 422.043 225.806C442.652 215.95 459.677 202.509 473.118 185.484C486.559 168.459 494.623 149.641 498.208 129.032C501.792 108.423 500 89.6056 492.831 72.5806C485.663 55.5555 473.118 41.2185 456.093 31.3619C439.068 21.5053 419.355 16.1289 396.057 16.1289C372.76 16.1289 350.358 21.5053 329.749 31.3619C309.14 41.2185 292.114 54.6594 278.674 71.6845C265.233 88.7096 256.272 107.527 252.688 129.032C249.104 149.641 250.896 168.459 258.96 185.484C266.129 202.509 278.674 215.95 295.699 225.806C312.724 236.559 333.333 241.039 356.631 241.039ZM366.487 181.9C356.631 181.9 348.566 179.211 342.294 174.731C336.021 170.251 331.541 163.978 328.853 155.914C326.165 147.849 326.165 138.889 327.957 129.032C329.749 119.176 333.333 110.215 338.709 102.15C344.086 94.0859 350.358 87.8135 358.423 82.4372C366.487 77.9569 374.552 75.2687 384.408 75.2687C394.265 75.2687 402.33 77.9569 409.498 82.4372C415.77 86.9175 420.251 93.1899 422.043 102.15C424.731 110.215 424.731 119.176 422.043 129.032C420.251 138.889 417.563 147.849 412.186 155.914C406.81 163.978 400.537 170.251 392.473 175.627C385.304 180.107 376.344 181.9 366.487 181.9Z" fill="#D9D9D9"/>
<path d="M377.24 568.996C358.423 578.853 336.022 584.229 310.036 584.229C286.738 584.229 266.129 579.749 250 569.892C232.079 560.036 219.534 545.699 211.47 526.882L281.362 497.312C285.842 504.48 291.219 509.857 297.491 513.441C303.763 517.025 310.932 518.817 318.996 518.817C330.645 517.921 340.502 514.337 347.67 506.272C354.839 498.208 359.319 487.455 362.007 474.91L368.519 433.849C357.415 447.308 344.492 457.841 329.749 465.95C311.828 475.806 293.011 481.183 272.401 481.183C246.416 481.183 227.599 473.118 215.054 457.885C203.405 441.756 199.821 419.355 204.301 390.681L223.118 273.297H306.452L289.427 379.928C287.634 392.473 288.53 402.33 293.907 409.498C299.283 416.667 307.348 420.251 318.996 420.251C327.957 420.251 336.918 417.563 345.878 412.186C354.839 406.81 362.007 399.641 368.28 389.785C373.784 381.135 377.909 371.794 380.047 361.158L394.265 271.505H475.806L445.341 465.95C441.756 489.247 434.588 509.857 422.939 527.778C411.29 544.803 396.057 559.14 377.24 568.996Z" fill="#D9D9D9"/>
</g>
<defs>
<clipPath id="clip0_12_14">
<rect width="500" height="584.229" fill="white"/>
</clipPath>
</defs>
</svg>
